<?xml version="1.0" standalone="no"?>
<!DOCTYPE svg PUBLIC "-//W3C//DTD SVG 20010904//EN"
 "http://www.w3.org/TR/2001/REC-SVG-20010904/DTD/svg10.dtd">
<svg version="1.0" xmlns="http://www.w3.org/2000/svg"
 width="735.000000pt" height="735.000000pt" viewBox="0 0 735.000000 735.000000"
 preserveAspectRatio="xMidYMid meet">
<metadata>
Created by potrace 1.11, written by Peter Selinger 2001-2013
</metadata>
<g transform="translate(0.000000,735.000000) scale(0.100000,-0.100000)"
fill="#000000" stroke="none">
<path d="M3390 7337 c0 -9 -28 -45 -62 -81 -118 -121 -138 -143 -138 -155 0
-6 -6 -11 -14 -11 -11 0 -13 -20 -9 -107 3 -60 10 -109 14 -111 5 -2 9 -42 9
-89 0 -62 4 -88 15 -99 10 -11 15 -36 15 -80 0 -61 1 -64 24 -64 14 0 28 -4
31 -10 3 -5 44 -10 91 -10 66 0 86 -3 90 -15 5 -12 25 -15 94 -15 86 0 88 0
99 28 6 15 12 71 13 126 2 67 7 100 16 103 9 4 12 38 12 124 0 73 4 119 10
119 6 0 10 43 10 108 0 81 4 113 16 130 9 13 14 37 12 59 -4 47 -19 52 -205
60 -128 5 -143 4 -143 -10z"/>
<path d="M3840 7203 c0 -21 -7 -51 -15 -67 -12 -22 -15 -67 -15 -197 0 -101
-4 -170 -10 -174 -6 -4 -10 -73 -10 -175 0 -136 -3 -171 -15 -184 -12 -12 -15
-47 -15 -190 0 -111 -4 -176 -10 -176 -6 0 -10 -67 -10 -180 l0 -180 24 0 c14
0 31 -7 40 -15 11 -12 41 -15 135 -15 77 0 121 4 121 10 0 10 8 22 38 55 6 7
12 18 12 24 0 6 4 11 10 11 5 0 12 11 16 25 3 14 10 25 15 25 5 0 9 5 9 11 0
6 7 17 15 26 8 8 13 18 10 23 -3 4 2 13 10 20 13 11 15 8 15 -17 0 -16 -7 -38
-15 -49 -8 -10 -15 -40 -15 -66 0 -27 -4 -48 -10 -48 -5 0 -10 -22 -10 -48 0
-27 -6 -57 -15 -68 -8 -11 -14 -41 -15 -71 0 -29 -4 -53 -10 -53 -5 0 -10 -7
-10 -15 0 -20 -97 -20 -124 0 -13 10 -43 15 -83 15 -35 0 -63 4 -63 10 0 6
-31 10 -73 10 -41 0 -78 5 -84 11 -6 6 -44 14 -83 17 -39 2 -73 9 -76 13 -3 5
-36 9 -74 9 -38 0 -71 4 -74 9 -3 5 -42 12 -86 16 -44 4 -83 11 -86 16 -3 5
-35 9 -72 9 -37 0 -74 5 -82 10 -12 8 -11 10 6 10 12 0 27 7 34 15 7 8 21 15
31 15 11 0 19 5 19 10 0 6 9 10 19 10 10 0 21 7 25 15 3 8 15 15 26 15 11 0
20 5 20 10 0 6 9 10 19 10 11 0 21 3 23 8 4 10 67 42 84 42 8 0 14 5 14 10 0
6 6 10 14 10 7 0 19 7 26 15 7 8 21 15 31 15 11 0 19 5 19 10 0 6 8 10 19 10
10 0 24 7 31 15 7 8 21 15 31 15 11 0 19 5 19 10 0 6 5 10 10 10 21 0 70 44
70 62 0 10 5 18 10 18 6 0 10 60 10 160 0 88 -4 160 -9 160 -5 0 -12 11 -15
25 -4 16 -13 25 -25 25 -10 0 -21 7 -25 15 -5 13 -76 15 -554 15 -476 0 -551
-2 -562 -15 -7 -8 -17 -15 -22 -15 -16 0 -47 -43 -48 -66 0 -12 -7 -27 -15
-34 -8 -7 -15 -28 -15 -46 0 -19 -4 -34 -10 -34 -5 0 -10 -14 -10 -31 0 -17
-7 -37 -15 -45 -8 -9 -15 -31 -15 -49 0 -19 -4 -37 -10 -40 -5 -3 -10 -19 -10
-34 0 -16 -7 -34 -15 -41 -8 -7 -15 -28 -15 -46 0 -19 -4 -34 -10 -34 -5 0
-10 -15 -10 -34 0 -19 -5 -36 -11 -38 -5 -2 -11 -18 -11 -37 -1 -18 -7 -35
-15 -38 -7 -3 -13 -20 -13 -38 0 -19 -4 -37 -10 -40 -5 -3 -10 -19 -10 -34 0
-15 -7 -36 -15 -47 -8 -10 -15 -34 -15 -51 0 -18 -4 -33 -10 -33 -5 0 -10 -13
-10 -28 0 -16 -7 -37 -15 -48 -19 -25 -19 -83 0 -90 8 -4 15 -15 15 -26 0 -19
82 -108 100 -108 4 0 24 -15 43 -33 19 -19 41 -37 50 -40 10 -4 17 -11 17 -17
0 -5 7 -10 15 -10 8 0 15 -4 15 -10 0 -5 7 -10 15 -10 8 0 15 -7 15 -15 0 -8
7 -15 15 -15 8 0 15 -4 15 -10 0 -5 7 -10 15 -10 8 0 15 -5 15 -10 0 -6 8 -14
18 -17 9 -4 29 -18 43 -32 14 -15 42 -37 62 -51 20 -14 37 -28 37 -32 0 -5 5
-8 11 -8 7 0 22 -11 35 -25 13 -14 26 -25 29 -25 3 0 13 -8 23 -17 35 -33 62
-53 72 -53 6 0 10 -4 10 -9 0 -6 14 -18 30 -28 36 -21 36 -23 10 -51 -11 -12
-20 -25 -20 -30 0 -5 -11 -30 -25 -56 -14 -26 -25 -60 -25 -77 0 -16 -4 -29
-10 -29 -6 0 -10 -55 -10 -145 0 -135 -1 -145 -19 -145 -10 0 -24 -7 -31 -15
-7 -8 -19 -15 -26 -15 -8 0 -14 -4 -14 -10 0 -5 -9 -10 -20 -10 -11 0 -20 -3
-20 -8 0 -4 -17 -16 -37 -27 -21 -11 -43 -24 -50 -30 -7 -5 -19 -16 -27 -22
-8 -7 -20 -13 -26 -13 -5 0 -10 -4 -10 -10 0 -5 -7 -10 -15 -10 -9 0 -18 -7
-21 -15 -4 -8 -12 -15 -20 -15 -8 0 -14 -4 -14 -10 0 -5 -7 -10 -15 -10 -9 0
-18 -7 -21 -15 -4 -8 -11 -15 -16 -15 -6 0 -21 -11 -34 -25 -13 -14 -28 -25
-34 -25 -5 0 -10 -4 -10 -10 0 -5 -4 -10 -9 -10 -5 0 -32 -22 -59 -50 -27 -27
-55 -50 -61 -50 -6 0 -11 -5 -11 -11 0 -14 -25 -39 -39 -39 -6 0 -11 -5 -11
-10 0 -6 -10 -21 -22 -34 -40 -40 -78 -86 -78 -92 0 -4 -11 -17 -25 -30 -14
-13 -25 -28 -25 -34 0 -6 -10 -21 -23 -33 -13 -12 -31 -39 -41 -59 -9 -21 -21
-38 -26 -38 -6 0 -10 -9 -10 -20 0 -11 -4 -20 -10 -20 -5 0 -12 -11 -16 -25
-3 -14 -10 -25 -15 -25 -5 0 -9 -11 -9 -24 0 -13 -7 -27 -16 -30 -10 -4 -14
-14 -11 -25 3 -12 -1 -22 -9 -25 -8 -3 -14 -19 -14 -36 0 -17 -7 -38 -15 -46
-8 -9 -15 -31 -15 -50 0 -19 -4 -34 -10 -34 -16 0 -13 -155 3 -169 15 -12 37
3 37 26 0 7 5 13 11 13 14 0 39 25 39 39 0 6 4 11 10 11 9 0 42 25 76 58 7 6
17 12 23 12 6 0 11 7 11 15 0 8 7 15 15 15 21 0 21 -83 0 -100 -8 -7 -15 -28
-15 -46 0 -19 -4 -34 -10 -34 -5 0 -10 -15 -10 -34 0 -21 -6 -36 -15 -40 -8
-3 -15 -17 -15 -31 0 -14 -4 -25 -10 -25 -5 0 -10 -13 -10 -30 0 -16 -4 -30
-10 -30 -5 0 -12 -11 -16 -25 -3 -14 -10 -25 -15 -25 -5 0 -9 -11 -9 -25 0
-14 -4 -25 -8 -25 -8 0 -42 -69 -42 -84 0 -4 -6 -14 -12 -21 -32 -35 -38 -45
-38 -60 0 -8 -4 -15 -10 -15 -5 0 -10 -9 -10 -20 0 -11 -7 -23 -15 -26 -8 -4
-15 -15 -15 -25 0 -10 -4 -19 -10 -19 -5 0 -10 -7 -10 -15 0 -8 -7 -15 -15
-15 -9 0 -15 -9 -15 -21 0 -11 -6 -27 -12 -34 -30 -33 -38 -45 -38 -55 0 -5
-4 -10 -10 -10 -5 0 -10 -7 -10 -15 0 -9 -7 -18 -15 -21 -8 -4 -15 -13 -15
-21 0 -7 -11 -25 -25 -39 -14 -14 -25 -29 -25 -35 0 -5 -11 -22 -25 -37 -14
-15 -25 -32 -25 -39 0 -7 -4 -13 -10 -13 -5 0 -10 -6 -10 -13 0 -7 -11 -21
-25 -31 -14 -10 -25 -25 -25 -32 0 -7 -8 -18 -17 -23 -10 -6 -13 -11 -8 -11 6
0 -2 -10 -16 -23 -14 -12 -34 -37 -44 -54 -11 -18 -23 -33 -27 -33 -4 0 -8 -7
-8 -15 0 -8 -4 -15 -10 -15 -5 0 -10 -18 -10 -40 0 -41 21 -57 34 -25 3 8 12
15 21 15 8 0 15 5 15 10 0 6 9 10 19 10 10 0 21 7 25 15 3 8 12 15 21 15 8 0
15 5 15 10 0 6 6 10 14 10 8 0 16 7 20 15 3 8 15 15 26 15 11 0 20 5 20 10 0
6 9 10 19 10 10 0 21 7 25 15 3 8 12 15 21 15 8 0 15 5 15 10 0 6 9 10 19 10
10 0 21 7 25 15 3 8 12 15 21 15 8 0 15 5 15 10 0 6 6 10 13 10 18 0 75 28 82
41 4 5 15 9 26 9 10 0 19 4 19 9 0 5 11 12 25 15 14 4 25 11 25 16 0 6 11 10
25 10 14 0 25 5 25 10 0 6 13 10 29 10 16 0 34 7 41 15 7 8 25 15 41 15 27 0
28 -2 22 -32 -3 -18 -12 -40 -19 -49 -8 -8 -14 -21 -14 -27 0 -7 -4 -12 -9
-12 -5 0 -12 -11 -15 -25 -4 -14 -11 -25 -16 -25 -6 0 -10 -5 -10 -10 0 -6
-11 -22 -25 -36 -14 -14 -25 -31 -25 -39 0 -8 -4 -15 -10 -15 -5 0 -10 -5 -10
-10 0 -6 -10 -21 -23 -34 -37 -39 -77 -86 -77 -92 0 -3 -16 -22 -35 -42 -19
-20 -35 -40 -35 -44 0 -4 -11 -18 -25 -32 -14 -14 -25 -28 -25 -31 0 -3 -12
-18 -28 -33 -39 -40 -102 -113 -102 -118 0 -3 -21 -27 -48 -53 -26 -27 -63
-67 -82 -90 -19 -24 -56 -64 -83 -90 -52 -53 -65 -101 -27 -101 11 0 20 3 20
8 0 7 30 25 63 38 9 3 17 10 17 15 0 5 11 9 24 9 13 0 29 7 36 15 7 8 25 15
41 15 16 0 29 5 29 10 0 6 14 10 31 10 17 0 37 7 45 15 22 22 199 22 208 0 3
-8 15 -15 26 -15 11 0 20 -4 20 -10 0 -5 7 -10 15 -10 8 0 15 -7 15 -15 0 -8
5 -15 10 -15 6 0 10 -6 10 -14 0 -7 7 -19 15 -26 9 -7 15 -29 15 -51 0 -21 5
-41 10 -44 13 -8 13 -235 0 -235 -5 0 -10 -20 -10 -44 0 -26 -6 -48 -15 -56
-8 -7 -15 -21 -15 -31 0 -11 -4 -19 -10 -19 -5 0 -10 -7 -10 -17 0 -9 -11 -31
-25 -49 -14 -18 -25 -36 -25 -39 0 -10 -28 -35 -39 -35 -6 0 -11 -5 -11 -11 0
-13 -25 -39 -38 -39 -6 0 -12 -7 -16 -15 -3 -8 -12 -15 -21 -15 -8 0 -15 -4
-15 -10 0 -5 -7 -10 -15 -10 -8 0 -15 -4 -15 -9 0 -5 -11 -12 -25 -15 -14 -4
-25 -11 -25 -16 0 -6 -11 -10 -25 -10 -14 0 -25 -4 -25 -9 0 -5 -16 -12 -35
-15 -19 -4 -35 -11 -35 -16 0 -6 -20 -10 -45 -10 -25 0 -45 -4 -45 -9 0 -5 -9
-13 -21 -16 -14 -5 -19 -14 -17 -28 2 -17 11 -23 38 -25 19 -2 38 -9 42 -15
11 -18 570 -17 575 1 3 6 15 12 28 12 12 0 25 7 29 15 3 8 15 15 26 15 11 0
20 5 20 10 0 6 5 10 10 10 5 0 18 8 28 17 10 10 35 31 55 48 20 16 37 34 37
40 0 5 10 19 22 30 26 23 46 52 54 78 4 9 10 17 15 17 5 0 9 8 9 19 0 10 7 24
15 31 8 7 15 21 15 31 0 11 5 19 10 19 6 0 10 7 10 15 0 7 6 18 13 22 6 4 18
20 25 34 8 15 25 38 38 52 13 14 24 29 24 32 0 7 59 65 65 65 5 0 46 33 71 58
7 6 20 12 28 12 9 0 16 4 16 10 0 5 11 12 25 16 14 3 25 10 25 15 0 5 9 9 21
9 11 0 27 7 35 15 9 8 30 15 49 15 18 0 35 5 37 10 2 7 32 10 78 7 53 -2 68
-6 53 -11 -12 -5 -25 -18 -29 -30 -4 -11 -17 -31 -30 -43 -13 -12 -24 -25 -24
-29 0 -4 -11 -22 -25 -40 -14 -18 -25 -40 -25 -48 0 -9 -4 -16 -10 -16 -5 0
-10 -11 -10 -24 0 -14 -7 -31 -15 -40 -9 -9 -15 -33 -15 -60 0 -26 -6 -55 -12
-66 -10 -16 -10 -24 0 -40 6 -11 12 -42 12 -70 0 -27 4 -50 8 -50 5 0 16 -19
26 -41 23 -51 50 -79 76 -79 15 0 20 7 20 24 0 14 5 28 10 31 6 3 10 19 10 36
0 16 4 29 8 29 5 0 18 23 30 50 12 28 26 50 32 50 5 0 9 3 8 8 -3 8 15 33 50
64 12 12 22 25 22 29 0 10 56 69 65 69 3 0 16 11 29 25 13 14 26 25 30 25 4 0
17 11 30 25 13 14 26 25 30 25 4 0 14 6 21 13 33 29 45 37 54 37 5 0 11 7 15
15 3 8 12 15 21 15 8 0 15 5 15 10 0 6 9 10 19 10 10 0 21 7 25 15 3 8 12 15
21 15 8 0 15 5 15 10 0 6 7 10 16 10 8 0 22 6 29 12 35 32 45 38 60 38 8 0 15
3 15 8 0 7 33 26 103 56 20 9 37 21 37 26 0 6 11 10 25 10 14 0 25 5 25 10 0
6 9 10 20 10 11 0 23 7 26 15 4 8 17 15 30 15 13 0 24 5 24 10 0 6 10 10 23
10 29 0 97 63 97 89 0 12 5 21 10 21 6 0 10 14 10 30 0 18 6 33 15 36 8 4 15
17 15 30 0 13 5 24 10 24 6 0 10 15 10 34 0 21 6 36 15 40 8 3 15 14 15 25 0
11 5 23 10 26 6 3 10 19 10 35 0 17 7 33 17 38 10 6 14 16 10 26 -5 12 0 16
18 16 14 0 25 -4 25 -10 0 -5 9 -10 19 -10 10 0 21 -7 25 -15 3 -8 15 -15 26
-15 11 0 20 -4 20 -10 0 -5 8 -10 19 -10 10 0 24 -7 31 -15 7 -8 21 -15 31
-15 11 0 19 -4 19 -10 0 -5 25 -10 55 -10 40 0 55 4 55 14 0 8 7 16 15 20 11
4 15 20 15 55 0 27 4 53 10 56 6 3 10 28 10 55 0 33 5 50 15 54 9 3 15 19 15
41 0 19 5 35 10 35 6 0 10 9 10 19 0 11 4 22 9 26 14 8 41 65 41 87 0 10 7 21
15 24 8 4 13 9 10 14 -2 4 2 16 10 26 8 10 15 29 15 40 0 12 7 27 15 34 8 7
15 21 15 31 0 11 5 19 10 19 6 0 10 9 10 19 0 11 4 22 9 25 5 3 12 22 15 41 4
19 11 35 16 35 6 0 10 11 10 25 0 14 4 25 10 25 5 0 12 17 15 38 3 20 10 45
16 54 5 10 9 35 9 56 0 21 5 43 10 48 6 6 13 44 15 84 3 41 9 78 15 84 12 12
14 296 1 296 -5 0 -12 79 -16 175 -4 96 -11 175 -16 175 -5 0 -9 76 -9 169 0
99 -4 171 -10 173 -5 2 -11 78 -14 173 -3 106 -9 171 -15 173 -7 2 -11 61 -11
166 0 89 -4 166 -9 172 -15 15 -18 357 -3 362 6 2 12 15 12 28 0 13 5 24 10
24 6 0 10 8 10 19 0 10 7 24 15 31 8 7 15 21 15 31 0 11 5 19 10 19 6 0 10 8
10 18 0 10 7 27 15 38 8 10 15 27 15 36 0 9 3 18 8 20 12 5 42 68 42 89 0 10
5 19 10 19 6 0 10 9 10 20 0 11 7 23 15 26 8 4 15 17 15 30 0 13 5 24 10 24 6
0 10 9 10 20 0 11 7 23 15 26 8 4 15 17 15 30 0 13 5 24 10 24 6 0 10 9 10 20
0 11 7 23 15 26 8 4 15 17 15 30 0 13 5 24 10 24 6 0 10 11 10 24 0 13 7 26
15 30 8 3 15 15 15 26 0 11 5 20 10 20 6 0 10 11 10 24 0 13 7 29 15 36 8 7
15 21 15 31 0 11 5 19 10 19 6 0 10 11 10 25 0 14 7 28 15 31 8 4 15 17 15 30
0 13 5 24 10 24 6 0 10 8 10 19 0 10 7 24 15 31 8 7 15 21 15 30 0 10 6 20 13
23 16 5 17 255 0 265 -5 4 -13 17 -17 30 -4 12 -12 22 -17 22 -5 0 -9 12 -9
26 0 14 -7 32 -15 41 -8 8 -13 19 -10 24 4 5 2 9 -2 9 -11 0 -43 70 -43 94 0
9 -7 19 -15 22 -8 4 -15 17 -15 30 0 13 -4 24 -10 24 -5 0 -10 9 -10 20 0 11
-7 23 -15 26 -8 4 -15 17 -15 30 0 13 -4 24 -10 24 -5 0 -10 9 -10 20 0 11 -7
23 -15 26 -8 4 -15 17 -15 30 0 13 -4 24 -10 24 -5 0 -10 8 -10 19 0 10 -7 24
-15 31 -8 7 -15 21 -15 31 0 11 -4 19 -10 19 -5 0 -10 11 -10 24 0 13 -7 26
-15 30 -13 4 -15 40 -15 232 0 204 -2 228 -17 240 -10 7 -28 14 -40 14 -12 0
-28 7 -37 15 -8 8 -28 15 -45 15 -17 0 -31 5 -31 10 0 6 -11 10 -24 10 -14 0
-31 7 -40 15 -8 8 -28 15 -45 15 -17 0 -31 5 -31 10 0 6 -18 10 -40 10 -34 0
-41 -4 -46 -25 -3 -14 -10 -25 -15 -25 -5 0 -9 -11 -9 -25 0 -14 -4 -25 -10
-25 -5 0 -10 -11 -10 -25 0 -16 -6 -25 -15 -25 -9 0 -15 -9 -15 -24 0 -14 -4
-28 -10 -31 -5 -3 -10 -15 -10 -25 0 -10 -7 -25 -15 -34 -8 -8 -15 -24 -15
-35 0 -12 -4 -21 -10 -21 -5 0 -10 -10 -10 -23 0 -13 -4 -27 -9 -32 -5 -6 -11
-19 -14 -30 -3 -11 -5 4 -6 33 0 28 -5 52 -11 52 -5 0 -10 24 -10 54 0 33 -5
56 -12 58 -6 2 -13 31 -16 66 -2 34 -8 62 -13 62 -5 0 -9 25 -9 55 0 30 -4 55
-10 55 -5 0 -12 11 -16 25 l-6 25 -194 0 -194 0 0 -37z"/>
<path d="M2725 7125 c-16 -19 -34 -35 -38 -35 -5 0 -14 -6 -21 -12 -7 -7 -32
-29 -56 -48 -24 -19 -57 -47 -72 -62 -16 -16 -33 -28 -38 -28 -6 0 -10 -4 -10
-9 0 -5 -9 -13 -20 -16 -21 -7 -29 -55 -10 -55 6 0 10 -14 10 -30 0 -18 6 -33
15 -36 8 -4 15 -17 15 -30 0 -13 5 -24 10 -24 6 0 10 -9 10 -20 0 -11 7 -23
15 -26 8 -4 15 -17 15 -31 0 -14 12 -34 28 -48 23 -21 37 -24 104 -25 42 0 80
-4 83 -10 3 -5 39 -10 80 -10 53 0 78 -4 89 -15 12 -12 34 -15 98 -13 l83 3 3
29 c3 19 -2 32 -13 38 -9 6 -14 17 -11 26 3 9 -1 30 -9 46 -8 15 -15 46 -15
67 0 22 -4 39 -10 39 -5 0 -10 17 -10 39 0 22 -6 44 -15 51 -8 7 -15 28 -15
46 0 19 -4 42 -9 52 -5 9 -12 25 -15 35 -3 11 -15 21 -26 24 -11 3 -20 9 -20
14 0 5 -7 9 -15 9 -8 0 -15 7 -15 15 0 8 -9 15 -20 15 -11 0 -20 5 -20 10 0 6
-4 10 -9 10 -6 0 -22 11 -37 25 -38 35 -72 32 -109 -10z"/>
<path d="M5057 3374 c-4 -4 -7 -22 -7 -41 0 -29 3 -33 26 -33 23 0 25 3 22 37
-3 36 -23 54 -41 37z"/>
</g>
</svg>
